<mxfile host="app.diagrams.net" modified="2024-02-07T16:22:57.340Z" agent="Mozilla/5.0 (Macintosh; Intel Mac OS X 10_15_7) AppleWebKit/605.1.15 (KHTML, like Gecko) Version/17.2.1 Safari/605.1.15" etag="ZBKN4mXTj7DWvFoR0WZu" version="23.1.1" type="device">
  <diagram name="Page-1" id="Wr4vrwkig1x_ZjdxHCCA">
    <mxGraphModel dx="1183" dy="696" grid="1" gridSize="10" guides="1" tooltips="1" connect="1" arrows="1" fold="1" page="1" pageScale="1" pageWidth="827" pageHeight="1169" math="0" shadow="0">
      <root>
        <mxCell id="0" />
        <mxCell id="1" parent="0" />
        <mxCell id="NBzpvJ22gtBQMdxe5mMx-2" value="" style="image;points=[];aspect=fixed;html=1;align=center;shadow=0;dashed=0;image=img/lib/allied_telesis/computer_and_terminals/Server_Desktop.svg;" vertex="1" parent="1">
          <mxGeometry x="570" y="320" width="42.599999999999994" height="54" as="geometry" />
        </mxCell>
        <mxCell id="NBzpvJ22gtBQMdxe5mMx-3" value="Server&lt;br&gt;" style="text;html=1;align=center;verticalAlign=middle;resizable=0;points=[];autosize=1;strokeColor=none;fillColor=none;" vertex="1" parent="1">
          <mxGeometry x="561.3" y="280" width="60" height="30" as="geometry" />
        </mxCell>
        <mxCell id="NBzpvJ22gtBQMdxe5mMx-4" value="" style="sketch=0;pointerEvents=1;shadow=0;dashed=0;html=1;strokeColor=none;fillColor=#505050;labelPosition=center;verticalLabelPosition=bottom;verticalAlign=top;outlineConnect=0;align=center;shape=mxgraph.office.devices.mac_client;" vertex="1" parent="1">
          <mxGeometry x="150" y="326" width="58" height="48" as="geometry" />
        </mxCell>
        <mxCell id="NBzpvJ22gtBQMdxe5mMx-5" value="Client&lt;br&gt;" style="text;html=1;align=center;verticalAlign=middle;resizable=0;points=[];autosize=1;strokeColor=none;fillColor=none;" vertex="1" parent="1">
          <mxGeometry x="154" y="280" width="50" height="30" as="geometry" />
        </mxCell>
        <mxCell id="NBzpvJ22gtBQMdxe5mMx-6" value="" style="endArrow=classic;html=1;rounded=0;" edge="1" parent="1">
          <mxGeometry width="50" height="50" relative="1" as="geometry">
            <mxPoint x="230" y="317" as="sourcePoint" />
            <mxPoint x="560" y="317" as="targetPoint" />
          </mxGeometry>
        </mxCell>
        <mxCell id="NBzpvJ22gtBQMdxe5mMx-7" value="HTTP POST" style="text;html=1;align=center;verticalAlign=middle;resizable=0;points=[];autosize=1;strokeColor=none;fillColor=none;" vertex="1" parent="1">
          <mxGeometry x="325" y="240" width="90" height="30" as="geometry" />
        </mxCell>
        <mxCell id="NBzpvJ22gtBQMdxe5mMx-8" value="" style="dashed=0;outlineConnect=0;html=1;align=center;labelPosition=center;verticalLabelPosition=bottom;verticalAlign=top;shape=mxgraph.webicons.json;gradientColor=#DFDEDE" vertex="1" parent="1">
          <mxGeometry x="350" y="270" width="40" height="36" as="geometry" />
        </mxCell>
        <mxCell id="NBzpvJ22gtBQMdxe5mMx-9" value="" style="endArrow=classic;html=1;rounded=0;" edge="1" parent="1">
          <mxGeometry width="50" height="50" relative="1" as="geometry">
            <mxPoint x="550" y="346.5" as="sourcePoint" />
            <mxPoint x="220" y="346.5" as="targetPoint" />
          </mxGeometry>
        </mxCell>
        <mxCell id="NBzpvJ22gtBQMdxe5mMx-10" value="" style="dashed=0;outlineConnect=0;html=1;align=center;labelPosition=center;verticalLabelPosition=bottom;verticalAlign=top;shape=mxgraph.webicons.json;gradientColor=#DFDEDE" vertex="1" parent="1">
          <mxGeometry x="54" y="60" width="60" height="60" as="geometry" />
        </mxCell>
        <mxCell id="NBzpvJ22gtBQMdxe5mMx-11" value="userForm" style="shape=table;startSize=30;container=1;collapsible=0;childLayout=tableLayout;fixedRows=1;rowLines=0;fontStyle=0;strokeColor=default;fontSize=13;" vertex="1" parent="1">
          <mxGeometry x="14" y="130" width="140" height="110" as="geometry" />
        </mxCell>
        <mxCell id="NBzpvJ22gtBQMdxe5mMx-12" value="" style="shape=tableRow;horizontal=0;startSize=0;swimlaneHead=0;swimlaneBody=0;top=0;left=0;bottom=0;right=0;collapsible=0;dropTarget=0;fillColor=none;points=[[0,0.5],[1,0.5]];portConstraint=eastwest;strokeColor=inherit;fontSize=16;" vertex="1" parent="NBzpvJ22gtBQMdxe5mMx-11">
          <mxGeometry y="30" width="140" height="30" as="geometry" />
        </mxCell>
        <mxCell id="NBzpvJ22gtBQMdxe5mMx-13" value="&lt;font size=&quot;1&quot;&gt;weightGoal&lt;/font&gt;" style="shape=partialRectangle;html=1;whiteSpace=wrap;connectable=0;fillColor=none;top=0;left=0;bottom=0;right=0;overflow=hidden;pointerEvents=1;strokeColor=inherit;fontSize=16;" vertex="1" parent="NBzpvJ22gtBQMdxe5mMx-12">
          <mxGeometry width="70" height="30" as="geometry">
            <mxRectangle width="70" height="30" as="alternateBounds" />
          </mxGeometry>
        </mxCell>
        <mxCell id="NBzpvJ22gtBQMdxe5mMx-14" value="&lt;font style=&quot;font-size: 11px;&quot;&gt;string&lt;/font&gt;" style="shape=partialRectangle;html=1;whiteSpace=wrap;connectable=0;fillColor=none;top=0;left=0;bottom=0;right=0;align=left;spacingLeft=6;overflow=hidden;strokeColor=inherit;fontSize=16;" vertex="1" parent="NBzpvJ22gtBQMdxe5mMx-12">
          <mxGeometry x="70" width="70" height="30" as="geometry">
            <mxRectangle width="70" height="30" as="alternateBounds" />
          </mxGeometry>
        </mxCell>
        <mxCell id="NBzpvJ22gtBQMdxe5mMx-15" value="" style="shape=tableRow;horizontal=0;startSize=0;swimlaneHead=0;swimlaneBody=0;top=0;left=0;bottom=0;right=0;collapsible=0;dropTarget=0;fillColor=none;points=[[0,0.5],[1,0.5]];portConstraint=eastwest;strokeColor=inherit;fontSize=16;" vertex="1" parent="NBzpvJ22gtBQMdxe5mMx-11">
          <mxGeometry y="60" width="140" height="30" as="geometry" />
        </mxCell>
        <mxCell id="NBzpvJ22gtBQMdxe5mMx-16" value="&lt;font style=&quot;font-size: 10px;&quot;&gt;allergens&lt;/font&gt;" style="shape=partialRectangle;html=1;whiteSpace=wrap;connectable=0;fillColor=none;top=0;left=0;bottom=0;right=0;overflow=hidden;strokeColor=inherit;fontSize=16;" vertex="1" parent="NBzpvJ22gtBQMdxe5mMx-15">
          <mxGeometry width="70" height="30" as="geometry">
            <mxRectangle width="70" height="30" as="alternateBounds" />
          </mxGeometry>
        </mxCell>
        <mxCell id="NBzpvJ22gtBQMdxe5mMx-17" value="&lt;font style=&quot;font-size: 11px;&quot;&gt;array[string]&lt;/font&gt;" style="shape=partialRectangle;html=1;whiteSpace=wrap;connectable=0;fillColor=none;top=0;left=0;bottom=0;right=0;align=left;spacingLeft=6;overflow=hidden;strokeColor=inherit;fontSize=16;" vertex="1" parent="NBzpvJ22gtBQMdxe5mMx-15">
          <mxGeometry x="70" width="70" height="30" as="geometry">
            <mxRectangle width="70" height="30" as="alternateBounds" />
          </mxGeometry>
        </mxCell>
        <mxCell id="NBzpvJ22gtBQMdxe5mMx-18" value="" style="shape=tableRow;horizontal=0;startSize=0;swimlaneHead=0;swimlaneBody=0;top=0;left=0;bottom=0;right=0;collapsible=0;dropTarget=0;fillColor=none;points=[[0,0.5],[1,0.5]];portConstraint=eastwest;strokeColor=inherit;fontSize=16;" vertex="1" parent="NBzpvJ22gtBQMdxe5mMx-11">
          <mxGeometry y="90" width="140" height="20" as="geometry" />
        </mxCell>
        <mxCell id="NBzpvJ22gtBQMdxe5mMx-19" value="&lt;font style=&quot;font-size: 10px;&quot;&gt;...&lt;/font&gt;" style="shape=partialRectangle;html=1;whiteSpace=wrap;connectable=0;fillColor=none;top=0;left=0;bottom=0;right=0;overflow=hidden;strokeColor=inherit;fontSize=16;" vertex="1" parent="NBzpvJ22gtBQMdxe5mMx-18">
          <mxGeometry width="70" height="20" as="geometry">
            <mxRectangle width="70" height="20" as="alternateBounds" />
          </mxGeometry>
        </mxCell>
        <mxCell id="NBzpvJ22gtBQMdxe5mMx-20" value="&lt;font style=&quot;font-size: 10px;&quot;&gt;...&lt;/font&gt;" style="shape=partialRectangle;html=1;whiteSpace=wrap;connectable=0;fillColor=none;top=0;left=0;bottom=0;right=0;align=left;spacingLeft=6;overflow=hidden;strokeColor=inherit;fontSize=16;" vertex="1" parent="NBzpvJ22gtBQMdxe5mMx-18">
          <mxGeometry x="70" width="70" height="20" as="geometry">
            <mxRectangle width="70" height="20" as="alternateBounds" />
          </mxGeometry>
        </mxCell>
        <mxCell id="NBzpvJ22gtBQMdxe5mMx-21" value="Response" style="text;html=1;align=center;verticalAlign=middle;resizable=0;points=[];autosize=1;strokeColor=none;fillColor=none;" vertex="1" parent="1">
          <mxGeometry x="330" y="344" width="80" height="30" as="geometry" />
        </mxCell>
        <mxCell id="NBzpvJ22gtBQMdxe5mMx-22" value="" style="dashed=0;outlineConnect=0;html=1;align=center;labelPosition=center;verticalLabelPosition=bottom;verticalAlign=top;shape=mxgraph.webicons.json;strokeColor=#b85450;fillColor=#f8cecc;" vertex="1" parent="1">
          <mxGeometry x="330" y="30" width="60" height="60" as="geometry" />
        </mxCell>
        <mxCell id="NBzpvJ22gtBQMdxe5mMx-37" value="" style="dashed=0;outlineConnect=0;html=1;align=center;labelPosition=center;verticalLabelPosition=bottom;verticalAlign=top;shape=mxgraph.webicons.json;strokeColor=#b85450;fillColor=#f8cecc;" vertex="1" parent="1">
          <mxGeometry x="350" y="374" width="40" height="36" as="geometry" />
        </mxCell>
        <mxCell id="NBzpvJ22gtBQMdxe5mMx-38" value="[ day1 { &amp;nbsp; &amp;nbsp;&lt;br&gt;&lt;span style=&quot;white-space: pre;&quot;&gt;&#x9;&lt;/span&gt;&lt;span style=&quot;white-space: pre;&quot;&gt;&#x9;&lt;/span&gt;breakfast: meal1&lt;br&gt;&lt;span style=&quot;white-space: pre;&quot;&gt;&#x9;&lt;/span&gt;&lt;span style=&quot;white-space: pre;&quot;&gt;&#x9;lunch: meal2&lt;/span&gt;&lt;br&gt;&lt;span style=&quot;white-space: pre;&quot;&gt;&#x9;&lt;span style=&quot;white-space: pre;&quot;&gt;&#x9;&lt;/span&gt;&lt;/span&gt;dinner: meal3&lt;br&gt;&lt;span style=&quot;white-space: pre;&quot;&gt;&#x9;&lt;/span&gt;&lt;span style=&quot;white-space: pre;&quot;&gt;&#x9;evening meal4&lt;br&gt;&lt;span style=&quot;white-space: pre;&quot;&gt;&#x9;    }&lt;br/&gt;&lt;/span&gt;&lt;/span&gt;&amp;nbsp; &amp;nbsp;day2 {...}&lt;br&gt;&lt;span style=&quot;white-space: pre;&quot;&gt;]&lt;/span&gt;" style="text;html=1;strokeColor=none;fillColor=none;align=left;verticalAlign=middle;whiteSpace=wrap;rounded=0;" vertex="1" parent="1">
          <mxGeometry x="270" y="100" width="270" height="120" as="geometry" />
        </mxCell>
        <mxCell id="NBzpvJ22gtBQMdxe5mMx-39" value="trainData&lt;br&gt;&lt;font style=&quot;font-size: 9px;&quot;&gt;data about healthy food available in Finland&lt;/font&gt;" style="rounded=0;whiteSpace=wrap;html=1;" vertex="1" parent="1">
          <mxGeometry x="700" y="310" width="120" height="60" as="geometry" />
        </mxCell>
        <mxCell id="NBzpvJ22gtBQMdxe5mMx-41" value="" style="endArrow=classic;startArrow=classic;html=1;rounded=0;" edge="1" parent="1">
          <mxGeometry width="50" height="50" relative="1" as="geometry">
            <mxPoint x="620" y="340" as="sourcePoint" />
            <mxPoint x="690" y="340" as="targetPoint" />
          </mxGeometry>
        </mxCell>
        <mxCell id="NBzpvJ22gtBQMdxe5mMx-42" value="" style="shape=datastore;whiteSpace=wrap;html=1;" vertex="1" parent="1">
          <mxGeometry x="561" y="120" width="60" height="60" as="geometry" />
        </mxCell>
        <mxCell id="NBzpvJ22gtBQMdxe5mMx-43" value="MongoDB" style="text;html=1;align=center;verticalAlign=middle;resizable=0;points=[];autosize=1;strokeColor=none;fillColor=none;" vertex="1" parent="1">
          <mxGeometry x="551.3" y="80" width="80" height="30" as="geometry" />
        </mxCell>
        <mxCell id="NBzpvJ22gtBQMdxe5mMx-44" value="" style="endArrow=classic;startArrow=classic;html=1;rounded=0;" edge="1" parent="1">
          <mxGeometry width="50" height="50" relative="1" as="geometry">
            <mxPoint x="590" y="260" as="sourcePoint" />
            <mxPoint x="590" y="200" as="targetPoint" />
          </mxGeometry>
        </mxCell>
        <mxCell id="NBzpvJ22gtBQMdxe5mMx-45" value="user authentication&lt;br&gt;generated meal plans" style="text;html=1;align=center;verticalAlign=middle;resizable=0;points=[];autosize=1;strokeColor=none;fillColor=none;" vertex="1" parent="1">
          <mxGeometry x="600" y="210" width="140" height="40" as="geometry" />
        </mxCell>
      </root>
    </mxGraphModel>
  </diagram>
</mxfile>
